<svg width="50" height="35" viewBox="0 0 40 35" fill="none" xmlns="http://www.w3.org/2000/svg">
<path d="M32 7.77778H8V0H32V7.77778ZM32 18.4722C32.5667 18.4722 33.042 18.2856 33.426 17.9122C33.81 17.5389 34.0013 17.0774 34 16.5278C34 15.9769 33.808 15.5147 33.424 15.1414C33.04 14.7681 32.5653 14.582 32 14.5833C31.4333 14.5833 30.958 14.77 30.574 15.1433C30.19 15.5167 29.9987 15.9781 30 16.5278C30 17.0787 30.192 17.5408 30.576 17.9142C30.96 18.2875 31.4347 18.4735 32 18.4722ZM28 31.1111V23.3333H12V31.1111H28ZM32 35H8V27.2222H0V15.5556C0 13.9028 0.583333 12.517 1.75 11.3983C2.91667 10.2796 4.33333 9.72093 6 9.72222H34C35.7 9.72222 37.1253 10.2816 38.276 11.4003C39.4267 12.519 40.0013 13.9041 40 15.5556V27.2222H32V35Z" fill="white"/>
</svg>
