<svg width="7" height="12" viewBox="0 0 7 12" fill="none" xmlns="http://www.w3.org/2000/svg">
<path d="M6.97505 6.0002C6.97505 6.13353 6.95005 6.26286 6.90005 6.3882C6.85005 6.51353 6.78338 6.61753 6.70005 6.7002L2.10005 11.3002C1.91672 11.4835 1.68338 11.5752 1.40005 11.5752C1.11671 11.5752 0.883382 11.4835 0.700048 11.3002C0.516715 11.1169 0.425049 10.8835 0.425049 10.6002C0.425049 10.3169 0.516715 10.0835 0.700048 9.9002L4.60005 6.0002L0.700048 2.1002C0.516715 1.91686 0.425049 1.68353 0.425049 1.4002C0.425049 1.11686 0.516715 0.88353 0.700048 0.700196C0.883382 0.516863 1.11671 0.425195 1.40005 0.425195C1.68338 0.425195 1.91672 0.516863 2.10005 0.700196L6.70005 5.3002C6.80005 5.4002 6.87105 5.50853 6.91305 5.6252C6.95505 5.74186 6.97572 5.86686 6.97505 6.0002Z" fill="#FAFAFA"/>
</svg>
