<svg width="7" height="12" viewBox="0 0 7 12" fill="none" xmlns="http://www.w3.org/2000/svg">
<path d="M0.024951 5.9998C0.024951 5.86647 0.0499516 5.73714 0.0999517 5.6118C0.149952 5.48647 0.216618 5.38247 0.299952 5.2998L4.89995 0.699804C5.08328 0.516471 5.31662 0.424805 5.59995 0.424805C5.88329 0.424805 6.11662 0.516471 6.29995 0.699804C6.48328 0.883138 6.57495 1.11647 6.57495 1.3998C6.57495 1.68314 6.48328 1.91647 6.29995 2.0998L2.39995 5.9998L6.29995 9.8998C6.48328 10.0831 6.57495 10.3165 6.57495 10.5998C6.57495 10.8831 6.48328 11.1165 6.29995 11.2998C6.11662 11.4831 5.88329 11.5748 5.59995 11.5748C5.31662 11.5748 5.08328 11.4831 4.89995 11.2998L0.299952 6.6998C0.199952 6.5998 0.128951 6.49147 0.0869513 6.3748C0.0449514 6.25814 0.0242844 6.13314 0.024951 5.9998Z" fill="#FAFAFA"/>
</svg>
