<svg width="28" height="28" viewBox="0 0 28 28" fill="none" xmlns="http://www.w3.org/2000/svg">
<path d="M19.2487 10.9524L16.2037 14L19.2526 17.0476C19.5448 17.3398 19.709 17.7362 19.709 18.1494C19.709 18.5627 19.5448 18.9591 19.2526 19.2513C18.9604 19.5435 18.564 19.7077 18.1507 19.7077C17.7375 19.7077 17.3411 19.5435 17.0489 19.2513L14 16.2037L10.9524 19.2526C10.6602 19.5448 10.2638 19.709 9.85056 19.709C9.43728 19.709 9.04094 19.5448 8.74871 19.2526C8.45648 18.9604 8.29231 18.564 8.29231 18.1507C8.29231 17.7375 8.45648 17.3411 8.74871 17.0489L11.7963 14L8.7513 10.9524C8.6066 10.8077 8.49182 10.6359 8.41351 10.4469C8.3352 10.2578 8.2949 10.0552 8.2949 9.85055C8.2949 9.43728 8.45907 9.04093 8.7513 8.7487C9.04353 8.45647 9.43988 8.2923 9.85315 8.2923C10.2664 8.2923 10.6628 8.45647 10.955 8.7487L14 11.7963L17.0476 8.74741C17.3398 8.45518 17.7362 8.291 18.1494 8.291C18.5627 8.291 18.9591 8.45518 19.2513 8.74741C19.5435 9.03963 19.7077 9.43598 19.7077 9.84926C19.7077 10.2625 19.5435 10.6589 19.2513 10.9511L19.2487 10.9524ZM28 14C28 16.7689 27.1789 19.4757 25.6406 21.778C24.1022 24.0803 21.9157 25.8747 19.3576 26.9343C16.7994 27.9939 13.9845 28.2712 11.2687 27.731C8.55301 27.1908 6.05845 25.8574 4.10051 23.8995C2.14258 21.9416 0.809205 19.447 0.269012 16.7313C-0.271181 14.0155 0.006066 11.2006 1.06569 8.64243C2.12532 6.08426 3.91973 3.89776 6.22202 2.35942C8.52431 0.821086 11.2311 0 14 0C17.7118 0.00411733 21.2703 1.48044 23.8949 4.10505C26.5196 6.72967 27.9959 10.2882 28 14ZM24.8889 14C24.8889 11.8464 24.2503 9.74112 23.0538 7.95046C21.8573 6.15979 20.1567 4.76413 18.167 3.93998C16.1773 3.11582 13.9879 2.90019 11.8757 3.32034C9.76345 3.74049 7.82324 4.77755 6.3004 6.30039C4.77756 7.82323 3.74049 9.76344 3.32034 11.8757C2.90019 13.9879 3.11583 16.1773 3.93998 18.167C4.76414 20.1567 6.15979 21.8573 7.95046 23.0538C9.74113 24.2503 11.8464 24.8889 14 24.8889C16.887 24.8858 19.6548 23.7376 21.6962 21.6962C23.7376 19.6548 24.8858 16.887 24.8889 14Z" fill="url(#paint0_linear_422_1617)"/>
<defs>
<linearGradient id="paint0_linear_422_1617" x1="0" y1="0" x2="28.09" y2="0.090605" gradientUnits="userSpaceOnUse">
<stop stop-color="#A91D43"/>
<stop offset="1" stop-color="#800023"/>
</linearGradient>
</defs>
</svg>
