<svg width="234" height="234" viewBox="0 0 234 234" fill="none" xmlns="http://www.w3.org/2000/svg">
<circle cx="117" cy="117" r="117" fill="#DADADF"/>
<path d="M154.25 132.2V154.25H132.2V168.95H154.25V191H168.95V168.95H191V154.25H168.95V132.2H154.25ZM119.705 176.3H58.7C50.615 176.3 44 169.685 44 161.6V58.7C44 50.615 50.615 44 58.7 44H161.6C169.685 44 176.3 50.615 176.3 58.7V119.705C171.89 118.235 166.745 117.5 161.6 117.5C153.515 117.5 145.43 119.705 138.815 124.115L128.525 110.15L102.8 143.225L84.425 121.175L58.7 154.25H118.235C117.5 156.455 117.5 159.395 117.5 161.6C117.5 166.745 118.235 171.89 119.705 176.3Z" fill="#F9FAFD"/>
</svg>
