<svg width="31" height="31" viewBox="0 0 31 31" fill="none" xmlns="http://www.w3.org/2000/svg">
<g clip-path="url(#clip0_1754_1239)">
<path d="M15.5223 0C13.3951 0 7.98596 5.53072 7.98596 5.53072C13.5167 9.42046 15.4616 17.8077 15.4616 17.8077C15.4616 17.8077 17.528 9.42046 23.0587 5.53072C23.0587 5.53072 17.6495 0 15.5223 0ZM15.5223 8.38421C15.1704 7.66278 13.3951 5.5915 13.3951 5.5915C14.1245 4.74062 15.5223 4.01129 15.5223 4.01129C15.5223 4.01129 16.9202 4.74062 17.6495 5.5915C17.6495 5.5915 15.8742 7.66278 15.5223 8.38421Z" fill="#AB1D44"/>
<path d="M24.2134 6.92871C24.2134 6.92871 14.0029 13.2495 16.8594 30.9357C16.8594 30.9357 22.5725 31.8473 30.8989 26.8028V22.7916C30.8989 22.7916 24.5781 26.4382 20.1414 26.9852C20.1414 26.9852 19.1689 15.4375 26.4622 9.96757L24.2134 6.92871Z" fill="#AB1D44"/>
<path d="M14.246 30.9357C14.246 30.9357 8.5329 31.8473 0.206428 26.8028L0.206424 24.943L0.206421 23.0831C0.206421 23.0831 0.327982 18.5979 1.48275 17.0177L4.70394 18.5371C4.70394 18.5371 3.8014 21.4721 3.78985 24.6228C5.94501 25.6195 8.70004 26.7062 10.964 26.9852C10.964 26.9852 11.9364 15.4375 4.64316 9.96757L6.89192 6.92871C6.89192 6.92871 17.1025 13.2495 14.246 30.9357Z" fill="#AB1D44"/>
</g>
<defs>
<clipPath id="clip0_1754_1239">
<rect width="30.6925" height="31" fill="white" transform="translate(0.206421)"/>
</clipPath>
</defs>
</svg>
