<svg
  width="32"
  height="37"
  viewBox="0 0 32 37"
  fill="none"
  xmlns="http://www.w3.org/2000/svg"
>
  <path
    d="M21.1694 11.266H0C0.187003 5.55034 4.85452 0.973999 10.5847 0.973999H10.5919C10.7786 6.68727 15.4427 11.2626 21.1694 11.266Z"
    fill="#3F9B98"
  />
  <path
    d="M21.1694 11.266C15.4427 11.2626 10.7786 6.68727 10.5919 0.973999C16.3183 0.977449 20.9824 5.55276 21.1694 11.266Z"
    fill="#4BB4A3"
  />
  <path
    d="M31.761 0.973999C31.574 6.68968 26.9064 11.266 21.1763 11.266H21.1691C20.9824 5.55276 16.3183 0.977449 10.5919 0.973999H31.761Z"
    fill="#90C79D"
  />
  <path
    d="M10.5919 24.0714H31.7613C31.5743 18.3557 26.9068 13.7794 21.1766 13.7794H21.1694C20.9824 19.4926 16.3183 24.0676 10.5919 24.0714Z"
    fill="#3F9B98"
  />
  <path
    d="M10.5919 24.0714C16.3187 24.0679 20.9824 19.4926 21.1694 13.7794C15.4427 13.7828 10.7786 18.3581 10.5919 24.0714Z"
    fill="#4BB4A3"
  />
  <path
    d="M0 13.7794C0.187003 19.495 4.85452 24.0714 10.5847 24.0714H10.5919C10.7789 18.3581 15.4427 13.7828 21.1694 13.7794H0Z"
    fill="#90C79D"
  />
  <path
    d="M21.1694 36.5175H0C0.187003 30.8018 4.85452 26.2255 10.5847 26.2255H10.5919C10.7786 31.9387 15.4427 36.5137 21.1694 36.5175Z"
    fill="#3F9B98"
  />
  <path
    d="M21.1694 36.5175C15.4427 36.514 10.7789 31.9387 10.5919 26.2255C16.3183 26.2289 20.9824 30.8042 21.1694 36.5175Z"
    fill="#4BB4A3"
  />
  <path
    d="M31.7609 26.2255C31.5739 31.9411 26.9064 36.5175 21.1762 36.5175H21.169C20.982 30.8042 16.3183 26.2289 10.5916 26.2255H31.7609Z"
    fill="#90C79D"
  />
</svg>
