<svg width="20" height="20" viewBox="0 0 20 20" fill="none" xmlns="http://www.w3.org/2000/svg">
<path d="M7.50002 6.91567e-06C7.03002 6.91567e-06 6.57002 0.0470069 6.12402 0.135007C5.9779 0.164073 5.84375 0.235998 5.73867 0.341612C5.63359 0.447225 5.56235 0.581741 5.53402 0.728007L5.17402 2.58701C5.16724 2.62217 5.15298 2.65547 5.13222 2.68465C5.11145 2.71382 5.08465 2.7382 5.05365 2.75612C5.02264 2.77404 4.98814 2.78509 4.9525 2.78852C4.91685 2.79195 4.88088 2.78769 4.84702 2.77601L3.05702 2.15801C2.9165 2.10924 2.76465 2.10335 2.62077 2.1411C2.4769 2.17885 2.3475 2.25853 2.24902 2.37001C1.63364 3.06713 1.16347 3.87998 0.866021 4.76101C0.818283 4.90207 0.813618 5.05414 0.85262 5.19786C0.891622 5.34158 0.972525 5.47043 1.08502 5.56801L2.51702 6.81001C2.54413 6.83348 2.56587 6.8625 2.58077 6.89511C2.59567 6.92772 2.60338 6.96315 2.60338 6.99901C2.60338 7.03486 2.59567 7.07029 2.58077 7.1029C2.56587 7.13552 2.54413 7.16454 2.51702 7.18801L1.08502 8.43101C0.972545 8.52838 0.891571 8.65701 0.852396 8.80054C0.813222 8.94406 0.817616 9.09599 0.865021 9.23701C1.16277 10.1181 1.63328 10.931 2.24902 11.628C2.3473 11.7395 2.47648 11.8192 2.62015 11.8571C2.76383 11.8951 2.91554 11.8894 3.05602 11.841L4.84702 11.223C4.88088 11.2113 4.91685 11.2071 4.9525 11.2105C4.98814 11.2139 5.02264 11.225 5.05365 11.2429C5.08465 11.2608 5.11145 11.2852 5.13222 11.3144C5.15298 11.3435 5.16724 11.3768 5.17402 11.412L5.53402 13.271C5.56235 13.4173 5.63359 13.5518 5.73867 13.6574C5.84375 13.763 5.9779 13.8349 6.12402 13.864C7.03576 14.046 7.97454 14.0453 8.88602 13.862C9.03177 13.8326 9.16549 13.7605 9.27019 13.6549C9.37489 13.5493 9.44583 13.415 9.47402 13.269L9.83402 11.412C9.84068 11.3768 9.85485 11.3433 9.87556 11.3141C9.89628 11.2848 9.92306 11.2603 9.95408 11.2422C9.9851 11.2242 10.0196 11.2131 10.0553 11.2096C10.0911 11.2061 10.1271 11.2103 10.161 11.222L11.946 11.839C12.0865 11.8874 12.2382 11.8931 12.3819 11.8551C12.5256 11.8172 12.6547 11.7375 12.753 11.626C13.3692 10.9278 13.8397 10.1135 14.137 9.23101C14.1842 9.09013 14.1885 8.9384 14.1493 8.79508C14.1102 8.65176 14.0293 8.52331 13.917 8.42601L12.491 7.18801C12.4639 7.16454 12.4422 7.13552 12.4273 7.1029C12.4124 7.07029 12.4047 7.03486 12.4047 6.99901C12.4047 6.96315 12.4124 6.92772 12.4273 6.89511C12.4422 6.8625 12.4639 6.83348 12.491 6.81001L13.917 5.57201C14.0295 5.47463 14.1105 5.346 14.1496 5.20248C14.1888 5.05896 14.1844 4.90702 14.137 4.76601C13.8397 3.88381 13.3692 3.06988 12.753 2.37201C12.6547 2.26036 12.5253 2.18049 12.3814 2.14256C12.2376 2.10463 12.0856 2.11035 11.945 2.15901L10.161 2.77501C10.1271 2.78668 10.0911 2.79092 10.0553 2.78742C10.0196 2.78393 9.9851 2.7728 9.95408 2.75477C9.92306 2.73675 9.89628 2.71226 9.87556 2.68296C9.85485 2.65367 9.84068 2.62026 9.83402 2.58501L9.47402 0.729007C9.44583 0.583009 9.37489 0.448685 9.27019 0.343098C9.16549 0.237512 9.03177 0.165429 8.88602 0.136007C8.42966 0.0449109 7.96538 -0.000645831 7.50002 6.91567e-06ZM5.75102 7.00001C5.75102 6.53588 5.9354 6.09076 6.26358 5.76257C6.59177 5.43438 7.03689 5.25001 7.50102 5.25001C7.96515 5.25001 8.41027 5.43438 8.73846 5.76257C9.06665 6.09076 9.25102 6.53588 9.25102 7.00001C9.25102 7.46414 9.06665 7.90926 8.73846 8.23744C8.41027 8.56563 7.96515 8.75001 7.50102 8.75001C7.03689 8.75001 6.59177 8.56563 6.26358 8.23744C5.9354 7.90926 5.75102 7.46414 5.75102 7.00001ZM11.911 12.784C11.9722 12.7062 12.0564 12.6497 12.1516 12.6228C12.2468 12.5958 12.3482 12.5998 12.441 12.634L13.7 13.069C13.7616 13.0904 13.8271 13.0983 13.892 13.0921C13.957 13.0859 14.0198 13.0658 14.0763 13.0332C14.1327 13.0006 14.1815 12.9561 14.2192 12.9029C14.257 12.8498 14.2828 12.7891 14.295 12.725L14.548 11.417C14.5648 11.3196 14.6121 11.23 14.6831 11.1612C14.7541 11.0923 14.8451 11.0478 14.943 11.034C15.3129 10.9882 15.6871 10.9882 16.057 11.034C16.1549 11.0478 16.2459 11.0923 16.3169 11.1612C16.3879 11.23 16.4352 11.3196 16.452 11.417L16.705 12.725C16.7174 12.789 16.7433 12.8496 16.7811 12.9027C16.8189 12.9558 16.8676 13.0001 16.924 13.0327C16.9805 13.0654 17.0432 13.0855 17.1081 13.0917C17.173 13.098 17.2384 13.0902 17.3 13.069L18.56 12.634C18.6526 12.6002 18.7535 12.5965 18.8483 12.6235C18.9431 12.6504 19.027 12.7066 19.088 12.784C19.312 13.079 19.5 13.404 19.647 13.749C19.726 13.936 19.666 14.149 19.513 14.282L18.505 15.157C18.456 15.1997 18.4167 15.2524 18.3898 15.3116C18.3629 15.3708 18.349 15.435 18.349 15.5C18.349 15.565 18.3629 15.6293 18.3898 15.6884C18.4167 15.7476 18.456 15.8003 18.505 15.843L19.513 16.717C19.5888 16.7803 19.6427 16.8659 19.6667 16.9617C19.6908 17.0575 19.6839 17.1584 19.647 17.25C19.501 17.596 19.312 17.92 19.088 18.216C19.027 18.2934 18.9431 18.3496 18.8483 18.3765C18.7535 18.4035 18.6526 18.3998 18.56 18.366L17.3 17.931C17.2385 17.9098 17.1731 17.902 17.1083 17.9082C17.0435 17.9144 16.9808 17.9344 16.9244 17.9669C16.868 17.9994 16.8192 18.0437 16.7814 18.0967C16.7435 18.1496 16.7175 18.2101 16.705 18.274L16.452 19.583C16.4352 19.6804 16.3879 19.77 16.3169 19.8389C16.2459 19.9077 16.1549 19.9522 16.057 19.966C15.6871 20.0118 15.3129 20.0118 14.943 19.966C14.8451 19.9522 14.7541 19.9077 14.6831 19.8389C14.6121 19.77 14.5648 19.6804 14.548 19.583L14.295 18.274C14.2827 18.21 14.2568 18.1494 14.219 18.0964C14.1812 18.0433 14.1324 17.999 14.0759 17.9665C14.0195 17.9339 13.9567 17.9139 13.8918 17.9078C13.827 17.9017 13.7616 17.9096 13.7 17.931L12.44 18.366C12.3474 18.3998 12.2465 18.4035 12.1517 18.3765C12.0569 18.3496 11.973 18.2934 11.912 18.216C11.6863 17.9185 11.4985 17.594 11.353 17.25C11.3161 17.1584 11.3092 17.0575 11.3333 16.9617C11.3574 16.8659 11.4112 16.7803 11.487 16.717L12.495 15.843C12.544 15.8003 12.5833 15.7476 12.6102 15.6884C12.6371 15.6293 12.6511 15.565 12.6511 15.5C12.6511 15.435 12.6371 15.3708 12.6102 15.3116C12.5833 15.2524 12.544 15.1997 12.495 15.157L11.488 14.282C11.412 14.2189 11.358 14.1333 11.3338 14.0375C11.3095 13.9417 11.3162 13.8407 11.353 13.749C11.499 13.403 11.687 13.079 11.911 12.784ZM16.751 15.5C16.751 15.1682 16.6192 14.85 16.3846 14.6154C16.15 14.3808 15.8318 14.249 15.5 14.249C15.1682 14.249 14.85 14.3808 14.6154 14.6154C14.3808 14.85 14.249 15.1682 14.249 15.5C14.249 15.8317 14.3808 16.1497 14.6153 16.3842C14.8498 16.6188 15.1679 16.7505 15.4995 16.7505C15.8312 16.7505 16.1492 16.6188 16.3838 16.3842C16.6183 16.1497 16.751 15.8317 16.751 15.5Z" fill="#A91D43" fillOpacity="0.75"/>
</svg>
