<svg width="20" height="20" viewBox="0 0 20 20" fill="none" xmlns="http://www.w3.org/2000/svg">
<path d="M16.9792 6.43229L12.5521 2.05729L14.0104 0.598958C14.4097 0.199653 14.9003 0 15.4823 0C16.0635 0 16.5538 0.199653 16.9531 0.598958L18.4115 2.05729C18.8108 2.4566 19.0191 2.93854 19.0365 3.50312C19.0538 4.06701 18.8628 4.54861 18.4635 4.94792L16.9792 6.43229ZM1.04167 19.0104C0.746528 19.0104 0.499306 18.9104 0.3 18.7104C0.1 18.5111 0 18.2639 0 17.9688V15.026C0 14.8872 0.0260417 14.7528 0.078125 14.6229C0.130208 14.4924 0.208333 14.375 0.3125 14.2708L11.0417 3.54167L15.4688 7.96875L4.73958 18.6979C4.63542 18.8021 4.5184 18.8802 4.38854 18.9323C4.25799 18.9844 4.12326 19.0104 3.98437 19.0104H1.04167Z" fill="#0D2864"/>
</svg>
