<svg width="46" height="39" viewBox="0 0 46 39" fill="none" xmlns="http://www.w3.org/2000/svg">
<path d="M8.0496 9.17647C8.0496 7.65538 8.65537 6.19658 9.73365 5.12101C10.8119 4.04543 12.2744 3.44118 13.7993 3.44118C15.3242 3.44118 16.7867 4.04543 17.865 5.12101C18.9433 6.19658 19.549 7.65538 19.549 9.17647C19.549 10.6976 18.9433 12.1564 17.865 13.2319C16.7867 14.3075 15.3242 14.9118 13.7993 14.9118C12.2744 14.9118 10.8119 14.3075 9.73365 13.2319C8.65537 12.1564 8.0496 10.6976 8.0496 9.17647ZM13.7993 0C11.3594 0 9.0195 0.966804 7.29425 2.68773C5.569 4.40865 4.59977 6.74272 4.59977 9.17647C4.59977 11.6102 5.569 13.9443 7.29425 15.6652C9.0195 17.3861 11.3594 18.3529 13.7993 18.3529C16.2392 18.3529 18.5791 17.3861 20.3044 15.6652C22.0296 13.9443 22.9988 11.6102 22.9988 9.17647C22.9988 6.74272 22.0296 4.40865 20.3044 2.68773C18.5791 0.966804 16.2392 0 13.7993 0ZM31.0484 11.4706C31.0484 10.5579 31.4119 9.68265 32.0589 9.03731C32.7058 8.39196 33.5833 8.02941 34.4983 8.02941C35.4132 8.02941 36.2907 8.39196 36.9377 9.03731C37.5846 9.68265 37.9481 10.5579 37.9481 11.4706C37.9481 12.3832 37.5846 13.2585 36.9377 13.9039C36.2907 14.5492 35.4132 14.9118 34.4983 14.9118C33.5833 14.9118 32.7058 14.5492 32.0589 13.9039C31.4119 13.2585 31.0484 12.3832 31.0484 11.4706ZM34.4983 4.58824C32.6684 4.58824 30.9134 5.31334 29.6195 6.60403C28.3255 7.89472 27.5986 9.64528 27.5986 11.4706C27.5986 13.2959 28.3255 15.0465 29.6195 16.3371C30.9134 17.6278 32.6684 18.3529 34.4983 18.3529C36.3282 18.3529 38.0831 17.6278 39.3771 16.3371C40.671 15.0465 41.3979 13.2959 41.3979 11.4706C41.3979 9.64528 40.671 7.89472 39.3771 6.60403C38.0831 5.31334 36.3282 4.58824 34.4983 4.58824ZM28.169 34.4989C29.7858 35.1528 31.858 35.5588 34.5006 35.5588C39.7489 35.5588 42.748 33.9598 44.3832 31.9846C45.1766 31.0256 45.5791 30.0575 45.7861 29.3165C45.9041 28.8872 45.9758 28.4465 46 28.002V27.9401C46 27.2836 45.8704 26.6336 45.6185 26.0271C45.3667 25.4206 44.9975 24.8695 44.5322 24.4053C44.0668 23.9411 43.5144 23.5729 42.9063 23.3217C42.2983 23.0705 41.6467 22.9412 40.9886 22.9412H28.0126C27.9482 22.9412 27.8861 22.9412 27.824 22.9458C28.7302 23.8864 29.3879 25.0678 29.7007 26.3824H40.9886C41.8441 26.3824 42.5387 27.0683 42.5502 27.9171C42.5338 28.0816 42.503 28.2443 42.4582 28.4035C42.3161 28.9137 42.065 29.3871 41.7222 29.7914C40.9173 30.7687 39.0267 32.1176 34.5006 32.1176C32.2467 32.1176 30.646 31.7827 29.5098 31.3262C29.2614 32.2438 28.8521 33.3519 28.169 34.4989ZM5.17474 22.9412C3.80231 22.9412 2.4861 23.485 1.51565 24.453C0.545194 25.421 0 26.734 0 28.1029V28.7407C0.00270297 28.9002 0.0134492 29.0595 0.0321983 29.2179C0.222122 30.9249 0.837239 32.5575 1.82151 33.9667C3.70282 36.6462 7.29524 39 13.7993 39C20.3034 39 23.8958 36.6485 25.7771 33.9644C26.7616 32.5553 27.3768 30.9227 27.5664 29.2156C27.5827 29.0577 27.5934 28.8993 27.5986 28.7407V28.1029C27.5986 26.734 27.0534 25.421 26.083 24.453C25.1125 23.485 23.7963 22.9412 22.4239 22.9412H5.17474ZM3.44983 28.6925V28.1029C3.44983 27.6466 3.63156 27.209 3.95504 26.8863C4.27853 26.5636 4.71727 26.3824 5.17474 26.3824H22.4239C22.8814 26.3824 23.3201 26.5636 23.6436 26.8863C23.9671 27.209 24.1488 27.6466 24.1488 28.1029V28.6925L24.1327 28.8761C24.0016 29.9957 23.5956 31.0658 22.9506 31.9915C21.8167 33.6088 19.3696 35.5588 13.7993 35.5588C8.22899 35.5588 5.78191 33.6088 4.64577 31.9915C4.00156 31.0656 3.5963 29.9955 3.46593 28.8761C3.45895 28.815 3.45358 28.7538 3.44983 28.6925Z" fill="white"/>
</svg>
