<svg width="11" height="11" viewBox="0 0 11 11" fill="none" xmlns="http://www.w3.org/2000/svg">
<path d="M5.5 11C5.11042 11 4.78363 10.868 4.51963 10.604C4.25563 10.34 4.12408 10.0137 4.125 9.625V6.875H1.375C0.98542 6.875 0.658629 6.743 0.394629 6.479C0.13063 6.215 -0.000911908 5.88867 4.75778e-06 5.5C4.75778e-06 5.11042 0.132005 4.78363 0.396005 4.51963C0.660004 4.25563 0.986337 4.12408 1.375 4.125H4.125V1.375C4.125 0.98542 4.257 0.658629 4.521 0.394629C4.785 0.130629 5.11133 -0.000911908 5.5 4.7578e-06C5.88958 4.7578e-06 6.21637 0.132005 6.48037 0.396005C6.74437 0.660004 6.87591 0.986337 6.875 1.375V4.125H9.625C10.0146 4.125 10.3414 4.257 10.6054 4.521C10.8694 4.785 11.0009 5.11133 11 5.5C11 5.88958 10.868 6.21637 10.604 6.48037C10.34 6.74437 10.0137 6.87592 9.625 6.875H6.875V9.625C6.875 10.0146 6.743 10.3414 6.479 10.6054C6.215 10.8694 5.88867 11.0009 5.5 11Z" fill="#FFF2F2"/>
</svg>
