<svg width="14" height="12" viewBox="0 0 14 12" fill="none" xmlns="http://www.w3.org/2000/svg">
<path d="M11.0002 0H3.00016V2.66667H11.0002M11.6668 6C11.49 6 11.3204 5.92976 11.1954 5.80474C11.0704 5.67971 11.0002 5.51014 11.0002 5.33333C11.0002 5.15652 11.0704 4.98695 11.1954 4.86193C11.3204 4.7369 11.49 4.66667 11.6668 4.66667C11.8436 4.66667 12.0132 4.7369 12.1382 4.86193C12.2633 4.98695 12.3335 5.15652 12.3335 5.33333C12.3335 5.51014 12.2633 5.67971 12.1382 5.80474C12.0132 5.92976 11.8436 6 11.6668 6ZM9.66683 10.6667H4.3335V7.33333H9.66683M11.6668 3.33333H2.3335C1.80306 3.33333 1.29436 3.54405 0.919283 3.91912C0.54421 4.29419 0.333496 4.8029 0.333496 5.33333V9.33333H3.00016V12H11.0002V9.33333H13.6668V5.33333C13.6668 4.8029 13.4561 4.29419 13.081 3.91912C12.706 3.54405 12.1973 3.33333 11.6668 3.33333Z" fill="url(#paint0_linear_436_1718)"/>
<defs>
<linearGradient id="paint0_linear_436_1718" x1="0.333496" y1="0" x2="13.7097" y2="0.047939" gradientUnits="userSpaceOnUse">
<stop stop-color="#A91D43"/>
<stop offset="1" stop-color="#800023"/>
</linearGradient>
</defs>
</svg>
