<svg width="15" height="15" viewBox="0 0 15 15" fill="none" xmlns="http://www.w3.org/2000/svg">
<path d="M1.47059 13.5C1.06618 13.5 0.719854 13.353 0.431619 13.059C0.143383 12.765 -0.000488948 12.412 1.24838e-06 12V1.5C1.24838e-06 1.0875 0.144119 0.734251 0.432354 0.440251C0.720589 0.146251 1.06667 -0.000498727 1.47059 1.27335e-06H10.2941L13.2353 3V7.05L6.91177 13.5H1.47059ZM2.20588 5.25H8.82353V2.25H2.20588V5.25ZM6.61765 11.25C7.23039 11.25 7.75123 11.0313 8.18015 10.5938C8.60907 10.1563 8.82353 9.625 8.82353 9C8.82353 8.375 8.60907 7.84375 8.18015 7.40625C7.75123 6.96875 7.23039 6.75 6.61765 6.75C6.0049 6.75 5.48407 6.96875 5.05515 7.40625C4.62623 7.84375 4.41177 8.375 4.41177 9C4.41177 9.625 4.62623 10.1563 5.05515 10.5938C5.48407 11.0313 6.0049 11.25 6.61765 11.25ZM8.82353 15V13.6688L12.5 9.9375L13.7868 11.2688L10.1287 15H8.82353ZM14.2647 10.7625L12.9596 9.45L13.5846 8.8125C13.6581 8.7375 13.7471 8.7 13.8515 8.7C13.9559 8.7 14.0446 8.7375 14.1176 8.8125L14.8897 9.6C14.9632 9.675 15 9.7625 15 9.8625C15 9.9625 14.9632 10.05 14.8897 10.125L14.2647 10.7625Z" fill="#FFF2F2"/>
</svg>
