<svg width="13" height="14" viewBox="0 0 13 14" fill="none" xmlns="http://www.w3.org/2000/svg">
<path d="M2.4375 14C1.99063 14 1.60794 13.8476 1.28944 13.5427C0.97094 13.2378 0.811961 12.8717 0.812502 12.4444V2.33334C0.582294 2.33334 0.38919 2.25867 0.23319 2.10934C0.0771904 1.96 -0.000538855 1.77541 2.81141e-06 1.55556C2.81141e-06 1.33519 0.0780029 1.15034 0.234003 1.001C0.390003 0.851669 0.582836 0.777262 0.812502 0.77778H4.0625C4.0625 0.55741 4.1405 0.372558 4.2965 0.223225C4.4525 0.0738915 4.64533 -0.000515827 4.875 2.69127e-06H8.125C8.35521 2.69127e-06 8.54831 0.0746694 8.70431 0.224003C8.86031 0.373336 8.93804 0.557928 8.9375 0.77778H12.1875C12.4177 0.77778 12.6108 0.852447 12.7668 1.00178C12.9228 1.15111 13.0005 1.33571 13 1.55556C13 1.77593 12.922 1.96078 12.766 2.11011C12.61 2.25945 12.4172 2.33385 12.1875 2.33334V12.4444C12.1875 12.8722 12.0282 13.2386 11.7097 13.5434C11.3912 13.8483 11.0088 14.0005 10.5625 14H2.4375ZM4.0625 10.1111C4.0625 10.3315 4.1405 10.5163 4.2965 10.6657C4.4525 10.815 4.64533 10.8894 4.875 10.8889C5.10521 10.8889 5.29831 10.8142 5.45431 10.6649C5.61031 10.5156 5.68804 10.331 5.6875 10.1111V4.66667C5.6875 4.4463 5.6095 4.26145 5.4535 4.11211C5.2975 3.96278 5.10467 3.88837 4.875 3.88889C4.64479 3.88889 4.45169 3.96356 4.29569 4.11289C4.13969 4.26222 4.06196 4.44682 4.0625 4.66667V10.1111ZM7.3125 10.1111C7.3125 10.3315 7.3905 10.5163 7.5465 10.6657C7.7025 10.815 7.89533 10.8894 8.125 10.8889C8.35521 10.8889 8.54831 10.8142 8.70431 10.6649C8.86031 10.5156 8.93804 10.331 8.9375 10.1111V4.66667C8.9375 4.4463 8.8595 4.26145 8.7035 4.11211C8.5475 3.96278 8.35467 3.88837 8.125 3.88889C7.89479 3.88889 7.70169 3.96356 7.54569 4.11289C7.38969 4.26222 7.31196 4.44682 7.3125 4.66667V10.1111Z" fill="url(#paint0_linear_100_626)"/>
<defs>
<linearGradient id="paint0_linear_100_626" x1="0" y1="0" x2="13.0418" y2="0.0390619" gradientUnits="userSpaceOnUse">
<stop stop-color="#A91D43"/>
<stop offset="1" stop-color="#800023"/>
</linearGradient>
</defs>
</svg>
