<svg width="43" height="34" viewBox="0 0 43 34" fill="none" xmlns="http://www.w3.org/2000/svg">
<path d="M4.3 27.125H3.8V27.625V29.75V30.25H4.3H10.75H11.25V29.75V4.25V3.75H10.75H4.3H3.8V4.25V23.375V23.875H4.3H5.95V27.125H4.3ZM21.5 10.125H21V10.625V23.375V23.875H21.5H38.7H39.2V23.375V10.625V10.125H38.7H21.5ZM2.15 0.5H12.9C13.3395 0.5 13.7598 0.672608 14.0688 0.978013C14.3776 1.28322 14.55 1.69592 14.55 2.125V31.875C14.55 32.3041 14.3776 32.7168 14.0688 33.022C13.7598 33.3274 13.3395 33.5 12.9 33.5H2.15C1.71052 33.5 1.2902 33.3274 0.9812 33.022C0.672401 32.7168 0.5 32.3041 0.5 31.875V2.125C0.5 1.69592 0.672401 1.28322 0.9812 0.978013C1.2902 0.672608 1.71052 0.5 2.15 0.5ZM21.5 6.875H38.7C39.7097 6.875 40.6769 7.27149 41.3891 7.97541C42.1011 8.67913 42.5 9.63234 42.5 10.625V23.375C42.5 24.3677 42.1011 25.3209 41.3891 26.0246C40.6769 26.7285 39.7097 27.125 38.7 27.125H21.5C20.4903 27.125 19.5231 26.7285 18.8109 26.0246C18.0989 25.3209 17.7 24.3677 17.7 23.375V10.625C17.7 9.63234 18.0989 8.67913 18.8109 7.97541C19.5231 7.27149 20.4903 6.875 21.5 6.875ZM25.8 30.25H34.4C34.8395 30.25 35.2598 30.4226 35.5688 30.728C35.8776 31.0332 36.05 31.4459 36.05 31.875C36.05 32.3041 35.8776 32.7168 35.5688 33.022C35.2598 33.3274 34.8395 33.5 34.4 33.5H25.8C25.3605 33.5 24.9402 33.3274 24.6312 33.022C24.3224 32.7168 24.15 32.3041 24.15 31.875C24.15 31.4459 24.3224 31.0332 24.6312 30.728C24.9402 30.4226 25.3605 30.25 25.8 30.25Z" fill="#FAFAFA" stroke="white"/>
</svg>
