<svg width="16" height="16" viewBox="0 0 16 16" fill="none" xmlns="http://www.w3.org/2000/svg">
<path d="M3.27896 1.05268C3.27896 0.665992 2.96258 0.349609 2.57589 0.349609C2.1892 0.349609 1.87282 0.665992 1.87282 1.05268V3.86497H0.466675V8.0834H4.6851V3.86497H3.27896V1.05268ZM6.09125 12.8783H7.49739V15.8172H8.90353V12.8783H10.3097V9.48954H6.09125V12.8783ZM0.466675 12.8783H1.87282V15.8172H3.27896V12.8783H4.6851V9.48954H0.466675V12.8783ZM14.5281 3.86497V1.05268C14.5281 0.665992 14.2117 0.349609 13.825 0.349609C13.4383 0.349609 13.122 0.665992 13.122 1.05268V3.86497H11.7158V8.0834H15.9343V3.86497H14.5281ZM8.90353 1.05268C8.90353 0.665992 8.58715 0.349609 8.20046 0.349609C7.81377 0.349609 7.49739 0.665992 7.49739 1.05268V3.86497H6.09125V8.0834H10.3097V3.86497H8.90353V1.05268ZM11.7158 12.8783H13.122V15.8172H14.5281V12.8783H15.9343V9.48954H11.7158V12.8783Z" fill="url(#paint0_linear_1754_300)"/>
<defs>
<linearGradient id="paint0_linear_1754_300" x1="0.466675" y1="0.349609" x2="15.984" y2="0.399661" gradientUnits="userSpaceOnUse">
<stop stop-color="#A91D43"/>
<stop offset="1" stop-color="#800023"/>
</linearGradient>
</defs>
</svg>
