<svg width="18" height="18" viewBox="0 0 18 18" fill="none" xmlns="http://www.w3.org/2000/svg">
<path d="M16.4668 2.13853V5.68632C16.4668 5.79156 16.425 5.8925 16.3506 5.96692C16.2761 6.04134 16.1752 6.08315 16.07 6.08315C15.9926 6.08238 15.917 6.05975 15.852 6.01787C15.7869 5.97599 15.7351 5.91657 15.7023 5.84647C15.0611 4.5002 14.0515 3.36322 12.7905 2.56732C11.5295 1.77142 10.0687 1.34921 8.57757 1.34961C4.487 1.34961 1.12303 4.46349 0.727783 8.44991" stroke="url(#paint0_linear_1754_17)" stroke-width="1.3497" stroke-linecap="round" stroke-linejoin="round"/>
<path d="M8.57523 8.44978V6.08301M12.5198 7.66085V11.6055C12.5198 12.0239 12.3536 12.4253 12.0577 12.7212C11.7618 13.0171 11.3605 13.1833 10.942 13.1833H6.20846C5.78999 13.1833 5.38866 13.0171 5.09276 12.7212C4.79685 12.4253 4.63062 12.0239 4.63062 11.6055V7.66085C4.63062 7.24238 4.79685 6.84105 5.09276 6.54515C5.38866 6.24924 5.78999 6.08301 6.20846 6.08301H10.942C11.3605 6.08301 11.7618 6.24924 12.0577 6.54515C12.3536 6.84105 12.5198 7.24238 12.5198 7.66085Z" stroke="url(#paint1_linear_1754_17)" stroke-width="1.3497" stroke-linecap="round" stroke-linejoin="round"/>
<path d="M0.725342 16.3387V12.7909C0.725342 12.5716 0.903638 12.3941 1.12296 12.3941C1.28074 12.3941 1.42275 12.488 1.4906 12.6308C2.13182 13.9769 3.14134 15.1137 4.40217 15.9096C5.66301 16.7055 7.12355 17.1278 8.61457 17.1276C12.7059 17.1276 16.0699 14.0138 16.4651 10.0273" stroke="url(#paint2_linear_1754_17)" stroke-width="1.3497" stroke-linecap="round" stroke-linejoin="round"/>
<defs>
<linearGradient id="paint0_linear_1754_17" x1="0.727783" y1="1.34961" x2="16.5168" y2="1.4625" gradientUnits="userSpaceOnUse">
<stop stop-color="#A91D43"/>
<stop offset="1" stop-color="#800023"/>
</linearGradient>
<linearGradient id="paint1_linear_1754_17" x1="4.63062" y1="6.08301" x2="12.5452" y2="6.11137" gradientUnits="userSpaceOnUse">
<stop stop-color="#A91D43"/>
<stop offset="1" stop-color="#800023"/>
</linearGradient>
<linearGradient id="paint2_linear_1754_17" x1="0.725342" y1="10.0273" x2="16.5151" y2="10.1402" gradientUnits="userSpaceOnUse">
<stop stop-color="#A91D43"/>
<stop offset="1" stop-color="#800023"/>
</linearGradient>
</defs>
</svg>
