<svg width="20" height="18" viewBox="0 0 20 18" fill="none" xmlns="http://www.w3.org/2000/svg">
<path d="M16.9941 10.6464H19.367V17.3959H9.8755V10.6464H12.2484V8.39662H16.9941V10.6464ZM13.4348 9.52153V10.6464H15.8077V9.52153H13.4348ZM18.1805 16.271V14.0212H16.9941V15.1461H15.8077V14.0212H13.4348V15.1461H12.2484V14.0212H11.0619V16.271H18.1805ZM18.1805 12.8963V11.7714H11.0619V12.8963H18.1805ZM11.0619 8.39662V9.52153H8.68907V11.7714H6.3162V10.6464H7.50263V9.52153H5.12977V11.7714H0.384033V5.02188H1.57047V0.522217H15.8077V7.2717H14.6212V1.64713H2.7569V5.02188H5.12977V8.39662H11.0619ZM3.94333 10.6464V6.14679H1.57047V10.6464H3.94333Z" fill="url(#paint0_linear_1754_1252)"/>
<defs>
<linearGradient id="paint0_linear_1754_1252" x1="0.384033" y1="0.522217" x2="19.4279" y2="0.591322" gradientUnits="userSpaceOnUse">
<stop stop-color="#A91D43"/>
<stop offset="1" stop-color="#800023"/>
</linearGradient>
</defs>
</svg>
