<svg width="18" height="18" viewBox="0 0 18 18" fill="none" xmlns="http://www.w3.org/2000/svg">
<path d="M11.6957 16.8167H3.96196C3.27825 16.8167 2.62255 16.5451 2.13909 16.0616C1.65564 15.5782 1.38403 14.9225 1.38403 14.2388V13.3795H9.97713V15.0981C9.97713 15.5539 10.1582 15.991 10.4805 16.3133C10.8028 16.6356 11.2399 16.8167 11.6957 16.8167ZM11.6957 16.8167C12.1516 16.8167 12.5887 16.6356 12.911 16.3133C13.2333 15.991 13.4144 15.5539 13.4144 15.0981V3.06774C13.4144 2.72783 13.5152 2.39555 13.704 2.11293C13.8929 1.8303 14.1613 1.61002 14.4753 1.47994C14.7893 1.34987 15.1349 1.31583 15.4683 1.38214C15.8017 1.44846 16.1079 1.61214 16.3482 1.85249C16.5886 2.09285 16.7523 2.39908 16.8186 2.73246C16.8849 3.06583 16.8509 3.41139 16.7208 3.72543C16.5907 4.03947 16.3704 4.30788 16.0878 4.49672C15.8052 4.68557 15.4729 4.78636 15.133 4.78636H13.4144M15.133 1.34912H5.68058C4.99687 1.34912 4.34117 1.62072 3.85771 2.10418C3.37426 2.58764 3.10265 3.24334 3.10265 3.92705V13.3795M6.53989 4.78636H9.97713M6.53989 8.2236H9.97713" stroke="url(#paint0_linear_1754_1984)" stroke-width="1.7996" stroke-linecap="round" stroke-linejoin="round"/>
<defs>
<linearGradient id="paint0_linear_1754_1984" x1="1.38403" y1="1.34912" x2="16.9013" y2="1.39917" gradientUnits="userSpaceOnUse">
<stop stop-color="#A91D43"/>
<stop offset="1" stop-color="#800023"/>
</linearGradient>
</defs>
</svg>
