<svg width="16" height="13" viewBox="0 0 16 13" fill="none" xmlns="http://www.w3.org/2000/svg">
<path d="M3.02599 3.05882C3.02599 2.55179 3.22353 2.06553 3.57514 1.707C3.92675 1.34848 4.40364 1.14706 4.9009 1.14706C5.39815 1.14706 5.87504 1.34848 6.22666 1.707C6.57827 2.06553 6.7758 2.55179 6.7758 3.05882C6.7758 3.56586 6.57827 4.05212 6.22666 4.41065C5.87504 4.76917 5.39815 4.97059 4.9009 4.97059C4.40364 4.97059 3.92675 4.76917 3.57514 4.41065C3.22353 4.05212 3.02599 3.56586 3.02599 3.05882ZM4.9009 0C4.10529 0 3.34226 0.322268 2.77968 0.895909C2.2171 1.46955 1.90105 2.24757 1.90105 3.05882C1.90105 3.87007 2.2171 4.6481 2.77968 5.22174C3.34226 5.79538 4.10529 6.11765 4.9009 6.11765C5.69651 6.11765 6.45953 5.79538 7.02211 5.22174C7.58469 4.6481 7.90075 3.87007 7.90075 3.05882C7.90075 2.24757 7.58469 1.46955 7.02211 0.895909C6.45953 0.322268 5.69651 0 4.9009 0ZM10.5256 3.82353C10.5256 3.51931 10.6441 3.22755 10.8551 3.01244C11.0661 2.79732 11.3522 2.67647 11.6506 2.67647C11.9489 2.67647 12.235 2.79732 12.446 3.01244C12.657 3.22755 12.7755 3.51931 12.7755 3.82353C12.7755 4.12775 12.657 4.41951 12.446 4.63462C12.235 4.84974 11.9489 4.97059 11.6506 4.97059C11.3522 4.97059 11.0661 4.84974 10.8551 4.63462C10.6441 4.41951 10.5256 4.12775 10.5256 3.82353ZM11.6506 1.52941C11.0539 1.52941 10.4816 1.77111 10.0596 2.20134C9.63771 2.63157 9.40067 3.21509 9.40067 3.82353C9.40067 4.43197 9.63771 5.01549 10.0596 5.44572C10.4816 5.87595 11.0539 6.11765 11.6506 6.11765C12.2473 6.11765 12.8195 5.87595 13.2415 5.44572C13.6634 5.01549 13.9004 4.43197 13.9004 3.82353C13.9004 3.21509 13.6634 2.63157 13.2415 2.20134C12.8195 1.77111 12.2473 1.52941 11.6506 1.52941ZM9.58666 11.4996C10.1139 11.7176 10.7896 11.8529 11.6513 11.8529C13.3627 11.8529 14.3407 11.3199 14.8739 10.6615C15.1326 10.3419 15.2639 10.0192 15.3314 9.77218C15.3698 9.62906 15.3932 9.48217 15.4011 9.334V9.31335C15.4011 9.09453 15.3589 8.87785 15.2767 8.67569C15.1946 8.47353 15.0742 8.28983 14.9225 8.13511C14.7707 7.98038 14.5906 7.85764 14.3923 7.7739C14.1941 7.69016 13.9816 7.64706 13.767 7.64706H9.53567C9.51467 7.64706 9.49442 7.64706 9.47417 7.64859C9.76965 7.96212 9.98414 8.35594 10.0861 8.79412H13.767C14.0459 8.79412 14.2724 9.02277 14.2762 9.30571C14.2708 9.36053 14.2608 9.41478 14.2462 9.46782C14.1998 9.63789 14.118 9.79571 14.0062 9.93047C13.7437 10.2562 13.1272 10.7059 11.6513 10.7059C10.9163 10.7059 10.3944 10.5942 10.0239 10.4421C9.9429 10.7479 9.8094 11.1173 9.58666 11.4996ZM2.08854 7.64706C1.64101 7.64706 1.21181 7.82833 0.895356 8.15101C0.578904 8.47368 0.401123 8.91132 0.401123 9.36765V9.58024C0.402004 9.6334 0.405509 9.68649 0.411622 9.73929C0.473554 10.3083 0.674136 10.8525 0.995093 11.3222C1.60856 12.2154 2.78 13 4.9009 13C7.02179 13 8.19323 12.2162 8.8067 11.3215C9.12775 10.8518 9.32834 10.3076 9.39017 9.73853C9.39547 9.68591 9.39897 9.63311 9.40067 9.58024V9.36765C9.40067 8.91132 9.22289 8.47368 8.90644 8.15101C8.58999 7.82833 8.16079 7.64706 7.71326 7.64706H2.08854ZM1.52607 9.56418V9.36765C1.52607 9.21554 1.58533 9.06966 1.69081 8.9621C1.79629 8.85454 1.93936 8.79412 2.08854 8.79412H7.71326C7.86243 8.79412 8.0055 8.85454 8.11098 8.9621C8.21647 9.06966 8.27573 9.21554 8.27573 9.36765V9.56418L8.27048 9.62535C8.22774 9.99858 8.09533 10.3553 7.885 10.6638C7.51527 11.2029 6.71731 11.8529 4.9009 11.8529C3.08449 11.8529 2.28653 11.2029 1.91605 10.6638C1.70598 10.3552 1.57383 9.99851 1.53132 9.62535C1.52904 9.60501 1.52729 9.58461 1.52607 9.56418Z" fill="url(#paint0_linear_1754_889)"/>
<defs>
<linearGradient id="paint0_linear_1754_889" x1="0.401123" y1="0" x2="15.4493" y2="0.0560056" gradientUnits="userSpaceOnUse">
<stop stop-color="#A91D43"/>
<stop offset="1" stop-color="#800023"/>
</linearGradient>
</defs>
</svg>
