<svg width="18" height="18" viewBox="0 0 18 18" fill="none" xmlns="http://www.w3.org/2000/svg">
<path fill-rule="evenodd" clip-rule="evenodd" d="M5.07175 8.63417C4.41277 8.63434 3.76291 8.48014 3.17425 8.18393C2.58559 7.88773 2.0745 7.45775 1.68192 6.92845C1.28935 6.39915 1.02622 5.78525 0.913617 5.13594C0.801011 4.48664 0.842062 3.81998 1.03348 3.1894C1.06367 3.08973 1.11917 2.99959 1.19457 2.92776C1.26997 2.85592 1.36269 2.80485 1.4637 2.77952C1.5647 2.75418 1.67055 2.75545 1.77093 2.7832C1.8713 2.81095 1.96277 2.86423 2.03642 2.93786L4.70369 5.60599C5.09918 5.55446 5.4665 5.3735 5.74837 5.09133C6.03024 4.80916 6.21082 4.44165 6.26194 4.0461L3.59467 1.37957C3.52105 1.30591 3.46777 1.21444 3.44002 1.11407C3.41227 1.01369 3.411 0.907843 3.43634 0.806831C3.46167 0.705822 3.51274 0.613098 3.58457 0.537699C3.6564 0.462299 3.74654 0.406799 3.84621 0.376606C4.50588 0.176323 5.20457 0.140743 5.88117 0.272982C6.55778 0.40522 7.19166 0.701246 7.72739 1.13516C8.26311 1.56908 8.68434 2.12767 8.95424 2.76206C9.22413 3.39645 9.33446 4.08731 9.27558 4.77421C9.20646 5.59233 9.35594 6.27704 9.78508 6.62985L16.7647 12.376C17.049 12.6113 17.281 12.9033 17.4459 13.2335C17.6108 13.5636 17.705 13.9245 17.7223 14.2931C17.7397 14.6618 17.6799 15.0299 17.5468 15.3741C17.4137 15.7183 17.2101 16.0309 16.9492 16.2919C16.6883 16.5528 16.3758 16.7564 16.0316 16.8897C15.6875 17.0229 15.3193 17.0827 14.9507 17.0654C14.5821 17.0482 14.2211 16.9541 13.891 16.7892C13.5608 16.6244 13.2687 16.3924 13.0334 16.1082L7.28658 9.12922C6.93298 8.70087 6.24908 8.55059 5.43098 8.6197C5.31149 8.62954 5.19165 8.63436 5.07175 8.63417ZM15.0168 14.9694C14.8569 14.9694 14.7036 14.9059 14.5906 14.7928C14.4775 14.6798 14.414 14.5265 14.414 14.3666V14.3602C14.414 14.2004 14.4775 14.047 14.5906 13.934C14.7036 13.821 14.8569 13.7575 15.0168 13.7575H15.0232C15.183 13.7575 15.3363 13.821 15.4494 13.934C15.5624 14.047 15.6259 14.2004 15.6259 14.3602V14.3666C15.6259 14.5265 15.5624 14.6798 15.4494 14.7928C15.3363 14.9059 15.183 14.9694 15.0232 14.9694H15.0168Z" fill="url(#paint0_linear_1754_850)"/>
<defs>
<linearGradient id="paint0_linear_1754_850" x1="0.851562" y1="17.0684" x2="0.906164" y2="0.140389" gradientUnits="userSpaceOnUse">
<stop stop-color="#A91D43"/>
<stop offset="1" stop-color="#800023"/>
</linearGradient>
</defs>
</svg>
